<svg version="1.2" xmlns="http://www.w3.org/2000/svg" viewBox="0 0 100 100" width="100" height="100"><style>.a{fill:#90b1de;stroke:#2c3d60;stroke-width:1.5}.b{fill:#4e7ec2}.c{fill:#999;stroke:#555;stroke-width:2}.d{opacity:.7;fill:#f00}.e{fill:#eee}.f{fill:#2c3d60}.g{fill:none;stroke:#bbb;stroke-width:2}</style><path class="a" d="m3 88v-81c0-3 1-4 4-4h86c3 0 4 2 4 5v85c0 2 0 4-4 4h-81z"/><path class="b" d="m6 6v81l7 7h81v-88z"/><path class="c" d="m28 62c-4 0-4 2-4 4v31h52v-31c0-2-1-4-4-4zm10 4c7 0 6 3 6 3v18c0 0 1 3-6 3-6 0-5-3-5-3v-18c0 0-1-3 5-3z"/><path fill-rule="evenodd" class="d" d="m17 4h66v10h-66z"/><path fill-rule="evenodd" class="e" d="m17 14h66v42h-66z"/><path fill-rule="evenodd" class="f" d="m8 9h6v6h-6z"/><path fill-rule="evenodd" class="g" d="m21 47h58m-58-12h58m-58-11h58"/></svg>