<svg version="1.2" xmlns="http://www.w3.org/2000/svg" viewBox="0 0 100 100" width="100" height="100"><style>.a{fill:#222}</style><path fill-rule="evenodd" class="a" d="m46.4 33.6q0.2 1.4 0.2 2.9 0 1.5-0.2 2.9l3.1 2.8c1 0.9 1.4 2.3 0.9 3.5q-0.5 1.1-1.1 2.2l-0.4 0.7q-0.6 1.1-1.4 2c-0.8 1.1-2.2 1.5-3.4 1l-4-1.3c-1.5 1.3-3.2 2.3-5 3l-0.9 4c-0.2 1.3-1.2 2.4-2.6 2.5q-1.4 0.2-2.8 0.2-1.4 0-2.8-0.2c-1.4-0.1-2.4-1.2-2.6-2.5l-0.9-4c-1.8-0.7-3.5-1.7-5-3l-4 1.3c-1.2 0.5-2.6 0.1-3.4-1q-0.8-0.9-1.4-2l-0.4-0.7q-0.6-1.1-1.1-2.2c-0.5-1.2-0.1-2.6 0.9-3.5l3.1-2.8q-0.2-1.4-0.2-2.9 0-1.5 0.2-2.9l-3.1-2.8c-1-0.9-1.4-2.3-0.9-3.5q0.5-1.1 1.1-2.2l0.4-0.7q0.7-1.1 1.4-2c0.8-1.1 2.2-1.5 3.4-1l4 1.3c1.5-1.3 3.2-2.3 5-3l0.9-4c0.3-1.3 1.3-2.4 2.6-2.5q1.4-0.2 2.8-0.2h0.1q1.4 0 2.8 0.2c1.3 0.1 2.3 1.2 2.6 2.5l0.8 4c1.9 0.7 3.6 1.7 5.1 3l3.9-1.3c1.3-0.5 2.6-0.1 3.4 0.9q0.8 1 1.4 2.1l0.4 0.7q0.6 1.1 1.1 2.2c0.5 1.2 0.1 2.6-0.9 3.5 0 0-3.1 2.8-3.1 2.8zm-22.3 7.7c1.2 1.2 2.9 1.9 4.7 1.9 1.8 0 3.5-0.7 4.8-1.9 1.2-1.3 1.9-3 1.9-4.8 0-1.8-0.7-3.5-1.9-4.7-1.3-1.3-3-2-4.8-2-1.8 0-3.5 0.7-4.7 2-1.3 1.2-2 2.9-2 4.7 0 1.8 0.7 3.5 2 4.8zm50.1 37.5q-1.5 0.2-2.9 0.2-1.5 0-3-0.2l-2.7 3.1c-0.9 1-2.3 1.4-3.5 0.8q-1.1-0.4-2.2-1l-0.7-0.5q-1.1-0.6-2.1-1.3c-1-0.8-1.4-2.2-1-3.5l1.3-3.9c-1.2-1.5-2.2-3.2-2.9-5.1l-4-0.8c-1.3-0.3-2.4-1.3-2.5-2.6q-0.2-1.4-0.2-2.9 0-1.4 0.2-2.8c0.1-1.4 1.2-2.4 2.5-2.6l4-0.9c0.7-1.8 1.7-3.5 2.9-5l-1.3-4c-0.4-1.2 0-2.6 1-3.4q1-0.8 2.1-1.4l0.7-0.4q1.1-0.6 2.2-1.1c1.2-0.5 2.6-0.1 3.5 0.9l2.7 3.1q1.4-0.3 2.9-0.3 1.5 0 3 0.3l2.7-3.1c0.9-1 2.3-1.4 3.5-0.9q1.1 0.5 2.2 1.1l0.7 0.4q1.1 0.6 2.1 1.4c1 0.8 1.4 2.2 1 3.4l-1.3 4c1.2 1.5 2.2 3.2 2.9 5l4 0.9c1.3 0.3 2.4 1.3 2.5 2.6q0.2 1.4 0.2 2.8 0 1.5-0.2 2.9c-0.1 1.3-1.2 2.3-2.5 2.6l-4 0.8c-0.7 1.9-1.7 3.6-2.9 5.1l1.3 3.9c0.4 1.3 0 2.7-1 3.5q-1 0.7-2.1 1.4l-0.7 0.4q-1.1 0.6-2.2 1.1c-1.2 0.5-2.6 0.1-3.5-0.9 0 0-2.7-3.1-2.7-3.1zm-7.7-22.4c-1.3 1.2-2 2.9-2 4.7 0 1.8 0.7 3.5 2 4.8 1.3 1.2 3 1.9 4.7 1.9 1.8 0 3.5-0.7 4.8-1.9 1.2-1.3 1.9-3 1.9-4.8 0-1.8-0.7-3.5-1.9-4.7-1.3-1.3-3-2-4.8-2-1.7 0-3.4 0.7-4.7 2z"/></svg>