<svg version="1.2" xmlns="http://www.w3.org/2000/svg" viewBox="0 0 100 100" width="100" height="100"><defs><linearGradient id="P" gradientUnits="userSpaceOnUse"/><linearGradient id="g1" x2="1" href="#P" gradientTransform="matrix(0,88,-88,0,6,5)"><stop stop-color="#430000" stop-opacity="1"/><stop offset=".5" stop-color="#430000" stop-opacity=".8"/><stop offset="1" stop-color="#430000" stop-opacity=".1"/></linearGradient><linearGradient id="g2" x2="1" href="#P" gradientTransform="matrix(0,68,-68,0,16,16)"><stop offset=".08" stop-color="#f22" stop-opacity="0"/><stop offset=".25" stop-color="#f22" stop-opacity=".6"/><stop offset=".5" stop-color="#f22" stop-opacity=".8"/><stop offset="1" stop-color="#f22" stop-opacity=".3"/></linearGradient></defs><style>.a{fill:#fff}.b{fill:url(#g1)}.c{fill:url(#g2);stroke:#9d3030;stroke-width:6}.d{fill:#ff753b}</style><path fill-rule="evenodd" class="a" d="m50 93c-24.3 0-44-19.7-44-44 0-24.3 19.7-44 44-44 24.3 0 44 19.7 44 44 0 24.3-19.7 44-44 44z"/><path fill-rule="evenodd" class="b" d="m50 93c-24.3 0-44-19.7-44-44 0-24.3 19.7-44 44-44 24.3 0 44 19.7 44 44 0 24.3-19.7 44-44 44z"/><path fill-rule="evenodd" class="a" d="m50 85c-19.4 0-35-15.6-35-35 0-19.4 15.6-35 35-35 19.4 0 35 15.6 35 35 0 19.4-15.6 35-35 35z"/><path fill-rule="evenodd" class="c" d="m50 84c-18.8 0-34-15.2-34-34 0-18.8 15.2-34 34-34 18.8 0 34 15.2 34 34 0 18.8-15.2 34-34 34z"/><path fill-rule="evenodd" class="d" d="m49.8 94c-24.2 0-43.8-20.1-43.8-45 0-24.9 19.6-45 43.8-45 24.2 0 43.8 20.1 43.8 45 0 24.9-19.6 45-43.8 45z"/></svg>