<svg version="1.2" xmlns="http://www.w3.org/2000/svg" viewBox="0 0 100 100" width="100" height="100"><defs><linearGradient id="P" gradientUnits="userSpaceOnUse"/><linearGradient id="g1" x2="1" href="#P" gradientTransform="matrix(0,61.6,-61.6,0,19.2,18.2)"><stop offset=".2" stop-color="#523200" stop-opacity="1"/><stop offset=".5" stop-color="#523200" stop-opacity=".8"/><stop offset="1" stop-color="#523200" stop-opacity=".1"/></linearGradient><linearGradient id="g2" x2="1" href="#P" gradientTransform="matrix(0,47.6,-47.6,0,26.2,25.9)"><stop offset=".08" stop-color="#d18d0e" stop-opacity="0"/><stop offset=".25" stop-color="#d18d0e" stop-opacity=".6"/><stop offset=".5" stop-color="#d18d0e" stop-opacity=".8"/><stop offset="1" stop-color="#d18d0e" stop-opacity=".3"/></linearGradient></defs><style>.a{fill:#fff}.b{fill:url(#g1)}.c{fill:url(#g2);stroke:#c37a05;stroke-width:6}</style><path fill-rule="evenodd" class="a" d="m50 79.8c-17 0-30.8-13.8-30.8-30.8 0-17 13.8-30.8 30.8-30.8 17 0 30.8 13.8 30.8 30.8 0 17-13.8 30.8-30.8 30.8z"/><path fill-rule="evenodd" class="b" d="m50 79.8c-17 0-30.8-13.8-30.8-30.8 0-17 13.8-30.8 30.8-30.8 17 0 30.8 13.8 30.8 30.8 0 17-13.8 30.8-30.8 30.8z"/><path fill-rule="evenodd" class="a" d="m50 74.2c-13.5 0-24.5-11-24.5-24.5 0-13.5 11-24.5 24.5-24.5 13.5 0 24.5 11 24.5 24.5 0 13.5-11 24.5-24.5 24.5z"/><path fill-rule="evenodd" class="c" d="m50 73.5c-13.2 0-23.8-10.6-23.8-23.8 0-13.2 10.6-23.8 23.8-23.8 13.2 0 23.8 10.6 23.8 23.8 0 13.2-10.6 23.8-23.8 23.8z"/></svg>